<svg width="48" height="47" viewBox="0 0 48 47" fill="none" xmlns="http://www.w3.org/2000/svg">
<path d="M23.795 12.5C22.815 12.5 21.59 13.165 21.065 13.97L13.68 25.03C13.015 25.975 12.7 27.025 12.7 28.25V37H18.3V34.2H28.1V37H33.7V14.25C33.7 13.305 32.895 12.5 31.95 12.5H23.795ZM18.3 27.55L25.055 17.4H28.1V29.3H18.3V27.55Z" fill="#E56037"/>
<path fill-rule="evenodd" clip-rule="evenodd" d="M0.5 12C0.5 5.64873 5.64873 0.5 12 0.5H36C42.3513 0.5 47.5 5.64873 47.5 12V35C47.5 41.3513 42.3513 46.5 36 46.5H12C5.64873 46.5 0.5 41.3513 0.5 35V12ZM12 3.5C7.30558 3.5 3.5 7.30558 3.5 12V35C3.5 39.6944 7.30558 43.5 12 43.5H36C40.6944 43.5 44.5 39.6944 44.5 35V12C44.5 7.30558 40.6944 3.5 36 3.5H12Z" fill="#6FB5A1"/>
</svg>
